<?plantuml 1.2026.1?><svg xmlns="http://www.w3.org/2000/svg" xmlns:xlink="http://www.w3.org/1999/xlink" contentStyleType="text/css" data-diagram-type="SEQUENCE" height="850px" preserveAspectRatio="none" style="width:599px;height:850px;background:#FFFFFF;" version="1.1" viewBox="0 0 599 850" width="599px" zoomAndPan="magnify"><title>OwnRide API Sequence Diagram</title><defs/><g><text fill="#000000" font-family="sans-serif" font-size="14" font-weight="bold" lengthAdjust="spacing" textLength="230.8838" x="180.2952" y="28.5352">OwnRide API Sequence Diagram</text><rect fill="none" height="146.2422" style="stroke:#000000;stroke-width:1.5;" width="330.9473" x="251.5269" y="165.2871"/><g class="participant-lifeline" data-entity-uid="part1" data-qualified-name="Caller" id="part1-lifeline"><g><title>Caller</title><rect fill="#000000" fill-opacity="0.00000" height="650.5898" width="8" x="23.52" y="118.9766"/><line style="stroke:#181818;stroke-width:0.5;stroke-dasharray:5,5;" x1="27" x2="27" y1="118.9766" y2="769.5664"/></g></g><g class="participant-lifeline" data-entity-uid="part2" data-qualified-name="API" id="part2-lifeline"><g><title>API</title><rect fill="#000000" fill-opacity="0.00000" height="650.5898" width="8" x="275.2422" y="118.9766"/><line style="stroke:#181818;stroke-width:0.5;stroke-dasharray:5,5;" x1="278.5269" x2="278.5269" y1="118.9766" y2="769.5664"/></g></g><g class="participant-lifeline" data-entity-uid="part3" data-qualified-name="Extracted" id="part3-lifeline"><g><title>Extracted</title><rect fill="#000000" fill-opacity="0.00000" height="650.5898" width="8" x="452.7666" y="118.9766"/><line style="stroke:#181818;stroke-width:0.5;stroke-dasharray:5,5;" x1="455.8223" x2="455.8223" y1="118.9766" y2="769.5664"/></g></g><g class="participant-lifeline" data-entity-uid="part4" data-qualified-name="Binary" id="part4-lifeline"><g><title>Binary</title><rect fill="#000000" fill-opacity="0.00000" height="650.5898" width="8" x="544.6929" y="118.9766"/><line style="stroke:#181818;stroke-width:0.5;stroke-dasharray:5,5;" x1="547.9116" x2="547.9116" y1="118.9766" y2="769.5664"/></g></g><g class="participant participant-head" data-entity-uid="part1" data-qualified-name="Caller" id="part1-head"><text fill="#000000" font-family="sans-serif" font-size="14" lengthAdjust="spacing" textLength="39.04" x="5" y="116.0234">Caller</text><ellipse cx="27.52" cy="50.9883" fill="#E2E2F0" rx="8" ry="8" style="stroke:#181818;stroke-width:0.5;"/><path d="M27.52,58.9883 L27.52,85.9883 M14.52,66.9883 L40.52,66.9883 M27.52,85.9883 L14.52,100.9883 M27.52,85.9883 L40.52,100.9883" fill="none" style="stroke:#181818;stroke-width:0.5;"/></g><g class="participant participant-tail" data-entity-uid="part1" data-qualified-name="Caller" id="part1-tail"><text fill="#000000" font-family="sans-serif" font-size="14" lengthAdjust="spacing" textLength="39.04" x="5" y="782.1016">Caller</text><ellipse cx="27.52" cy="793.5547" fill="#E2E2F0" rx="8" ry="8" style="stroke:#181818;stroke-width:0.5;"/><path d="M27.52,801.5547 L27.52,828.5547 M14.52,809.5547 L40.52,809.5547 M27.52,828.5547 L14.52,843.5547 M27.52,828.5547 L40.52,843.5547" fill="none" style="stroke:#181818;stroke-width:0.5;"/></g><g class="participant participant-head" data-entity-uid="part2" data-qualified-name="API" id="part2-head"><rect fill="#E2E2F0" height="30.4883" rx="2.5" ry="2.5" style="stroke:#181818;stroke-width:0.5;" width="35.4307" x="261.5269" y="87.4883"/><text fill="#000000" font-family="sans-serif" font-size="14" lengthAdjust="spacing" textLength="21.4307" x="268.5269" y="108.0234">API</text></g><g class="participant participant-tail" data-entity-uid="part2" data-qualified-name="API" id="part2-tail"><rect fill="#E2E2F0" height="30.4883" rx="2.5" ry="2.5" style="stroke:#181818;stroke-width:0.5;" width="35.4307" x="261.5269" y="768.5664"/><text fill="#000000" font-family="sans-serif" font-size="14" lengthAdjust="spacing" textLength="21.4307" x="268.5269" y="789.1016">API</text></g><g class="participant participant-head" data-entity-uid="part3" data-qualified-name="Extracted" id="part3-head"><text fill="#000000" font-family="sans-serif" font-size="14" lengthAdjust="spacing" textLength="63.8887" x="421.8223" y="116.0234">Extracted</text><path d="M438.7666,66.4883 C438.7666,56.4883 456.7666,56.4883 456.7666,56.4883 C456.7666,56.4883 474.7666,56.4883 474.7666,66.4883 L474.7666,92.4883 C474.7666,102.4883 456.7666,102.4883 456.7666,102.4883 C456.7666,102.4883 438.7666,102.4883 438.7666,92.4883 L438.7666,66.4883" fill="#E2E2F0" style="stroke:#181818;stroke-width:0.5;"/><path d="M438.7666,66.4883 C438.7666,76.4883 456.7666,76.4883 456.7666,76.4883 C456.7666,76.4883 474.7666,76.4883 474.7666,66.4883" fill="none" style="stroke:#181818;stroke-width:0.5;"/></g><g class="participant participant-tail" data-entity-uid="part3" data-qualified-name="Extracted" id="part3-tail"><text fill="#000000" font-family="sans-serif" font-size="14" lengthAdjust="spacing" textLength="63.8887" x="421.8223" y="782.1016">Extracted</text><path d="M438.7666,795.0547 C438.7666,785.0547 456.7666,785.0547 456.7666,785.0547 C456.7666,785.0547 474.7666,785.0547 474.7666,795.0547 L474.7666,821.0547 C474.7666,831.0547 456.7666,831.0547 456.7666,831.0547 C456.7666,831.0547 438.7666,831.0547 438.7666,821.0547 L438.7666,795.0547" fill="#E2E2F0" style="stroke:#181818;stroke-width:0.5;"/><path d="M438.7666,795.0547 C438.7666,805.0547 456.7666,805.0547 456.7666,805.0547 C456.7666,805.0547 474.7666,805.0547 474.7666,795.0547" fill="none" style="stroke:#181818;stroke-width:0.5;"/></g><g class="participant participant-head" data-entity-uid="part4" data-qualified-name="Binary" id="part4-head"><text fill="#000000" font-family="sans-serif" font-size="14" lengthAdjust="spacing" textLength="41.5625" x="524.9116" y="116.0234">Binary</text><path d="M530.6929,66.4883 C530.6929,56.4883 548.6929,56.4883 548.6929,56.4883 C548.6929,56.4883 566.6929,56.4883 566.6929,66.4883 L566.6929,92.4883 C566.6929,102.4883 548.6929,102.4883 548.6929,102.4883 C548.6929,102.4883 530.6929,102.4883 530.6929,92.4883 L530.6929,66.4883" fill="#E2E2F0" style="stroke:#181818;stroke-width:0.5;"/><path d="M530.6929,66.4883 C530.6929,76.4883 548.6929,76.4883 548.6929,76.4883 C548.6929,76.4883 566.6929,76.4883 566.6929,66.4883" fill="none" style="stroke:#181818;stroke-width:0.5;"/></g><g class="participant participant-tail" data-entity-uid="part4" data-qualified-name="Binary" id="part4-tail"><text fill="#000000" font-family="sans-serif" font-size="14" lengthAdjust="spacing" textLength="41.5625" x="524.9116" y="782.1016">Binary</text><path d="M530.6929,795.0547 C530.6929,785.0547 548.6929,785.0547 548.6929,785.0547 C548.6929,785.0547 566.6929,785.0547 566.6929,795.0547 L566.6929,821.0547 C566.6929,831.0547 548.6929,831.0547 548.6929,831.0547 C548.6929,831.0547 530.6929,831.0547 530.6929,821.0547 L530.6929,795.0547" fill="#E2E2F0" style="stroke:#181818;stroke-width:0.5;"/><path d="M530.6929,795.0547 C530.6929,805.0547 548.6929,805.0547 548.6929,805.0547 C548.6929,805.0547 566.6929,805.0547 566.6929,795.0547" fill="none" style="stroke:#181818;stroke-width:0.5;"/></g><g class="message" data-entity-1="part1" data-entity-2="part2" id="msg1"><polygon fill="#181818" points="267.2422,146.2871,277.2422,150.2871,267.2422,154.2871,271.2422,150.2871" style="stroke:#181818;stroke-width:1;"/><line style="stroke:#181818;stroke-width:1;" x1="27.52" x2="273.2422" y1="150.2871" y2="150.2871"/><text fill="#000000" font-family="sans-serif" font-size="13" font-weight="bold" lengthAdjust="spacing" textLength="35.0708" x="34.52" y="145.5449">POST</text><text fill="#000000" font-family="sans-serif" font-size="13" lengthAdjust="spacing" textLength="83.0591" x="73.7041" y="145.5449">/own/upload</text></g><path d="M251.5269,165.2871 L375.8345,165.2871 L375.8345,172.5977 L365.8345,182.5977 L251.5269,182.5977 L251.5269,165.2871" fill="#EEEEEE" style="stroke:#000000;stroke-width:1.5;"/><rect fill="none" height="146.2422" style="stroke:#000000;stroke-width:1.5;" width="330.9473" x="251.5269" y="165.2871"/><text fill="#000000" font-family="sans-serif" font-size="13" font-weight="bold" lengthAdjust="spacing" textLength="79.3076" x="266.5269" y="178.8555">Transaction</text><g class="message" data-entity-1="part2" data-entity-2="part2" id="msg2"><line style="stroke:#181818;stroke-width:1;" x1="279.2422" x2="321.2422" y1="203.9082" y2="203.9082"/><line style="stroke:#181818;stroke-width:1;" x1="321.2422" x2="321.2422" y1="203.9082" y2="216.9082"/><line style="stroke:#181818;stroke-width:1;" x1="280.2422" x2="321.2422" y1="216.9082" y2="216.9082"/><polygon fill="#181818" points="290.2422,212.9082,280.2422,216.9082,290.2422,220.9082,286.2422,216.9082" style="stroke:#181818;stroke-width:1;"/><text fill="#000000" font-family="sans-serif" font-size="13" lengthAdjust="spacing" textLength="44.0972" x="286.2422" y="199.166">extract</text></g><g class="message" data-entity-1="part2" data-entity-2="part4" id="msg3"><polygon fill="#181818" points="536.6929,242.2188,546.6929,246.2188,536.6929,250.2188,540.6929,246.2188" style="stroke:#181818;stroke-width:1;"/><line style="stroke:#181818;stroke-width:1;" x1="279.2422" x2="542.6929" y1="246.2188" y2="246.2188"/><text fill="#000000" font-family="sans-serif" font-size="13" lengthAdjust="spacing" textLength="86.0298" x="286.2422" y="241.4766">persist binary</text></g><g class="message" data-entity-1="part4" data-entity-2="part2" id="msg4"><polygon fill="#181818" points="290.2422,256.2188,280.2422,260.2188,290.2422,264.2188,286.2422,260.2188" style="stroke:#181818;stroke-width:1;"/><line style="stroke:#181818;stroke-width:1;stroke-dasharray:2,2;" x1="284.2422" x2="547.6929" y1="260.2188" y2="260.2188"/></g><g class="message" data-entity-1="part2" data-entity-2="part3" id="msg5"><polygon fill="#181818" points="444.7666,285.5293,454.7666,289.5293,444.7666,293.5293,448.7666,289.5293" style="stroke:#181818;stroke-width:1;"/><line style="stroke:#181818;stroke-width:1;" x1="279.2422" x2="450.7666" y1="289.5293" y2="289.5293"/><text fill="#000000" font-family="sans-serif" font-size="13" lengthAdjust="spacing" textLength="106.2534" x="286.2422" y="284.7871">persist extracted</text></g><g class="message" data-entity-1="part3" data-entity-2="part2" id="msg6"><polygon fill="#181818" points="290.2422,299.5293,280.2422,303.5293,290.2422,307.5293,286.2422,303.5293" style="stroke:#181818;stroke-width:1;"/><line style="stroke:#181818;stroke-width:1;stroke-dasharray:2,2;" x1="284.2422" x2="455.7666" y1="303.5293" y2="303.5293"/></g><g class="message" data-entity-1="part2" data-entity-2="part1" id="msg7"><polygon fill="#181818" points="38.52,335.8398,28.52,339.8398,38.52,343.8398,34.52,339.8398" style="stroke:#181818;stroke-width:1;"/><line style="stroke:#181818;stroke-width:1;stroke-dasharray:2,2;" x1="32.52" x2="278.2422" y1="339.8398" y2="339.8398"/><text fill="#000000" font-family="sans-serif" font-size="13" lengthAdjust="spacing" textLength="24.6606" x="44.52" y="335.0977">201</text></g><g class="message" data-entity-1="part1" data-entity-2="part2" id="msg8"><polygon fill="#181818" points="267.2422,365.1504,277.2422,369.1504,267.2422,373.1504,271.2422,369.1504" style="stroke:#181818;stroke-width:1;"/><line style="stroke:#181818;stroke-width:1;" x1="27.52" x2="273.2422" y1="369.1504" y2="369.1504"/><text fill="#000000" font-family="sans-serif" font-size="13" font-weight="bold" lengthAdjust="spacing" textLength="26.4697" x="34.52" y="364.4082">GET</text><text fill="#000000" font-family="sans-serif" font-size="13" lengthAdjust="spacing" textLength="122.3511" x="65.103" y="364.4082">/own/activities/{id}</text></g><g class="message" data-entity-1="part2" data-entity-2="part3" id="msg9"><polygon fill="#181818" points="444.7666,394.4609,454.7666,398.4609,444.7666,402.4609,448.7666,398.4609" style="stroke:#181818;stroke-width:1;"/><line style="stroke:#181818;stroke-width:1;" x1="279.2422" x2="450.7666" y1="398.4609" y2="398.4609"/><text fill="#000000" font-family="sans-serif" font-size="13" lengthAdjust="spacing" textLength="66.7393" x="286.2422" y="393.7188">fetch by Id</text></g><g class="message" data-entity-1="part3" data-entity-2="part2" id="msg10"><polygon fill="#181818" points="290.2422,408.4609,280.2422,412.4609,290.2422,416.4609,286.2422,412.4609" style="stroke:#181818;stroke-width:1;"/><line style="stroke:#181818;stroke-width:1;stroke-dasharray:2,2;" x1="284.2422" x2="455.7666" y1="412.4609" y2="412.4609"/></g><g class="message" data-entity-1="part2" data-entity-2="part1" id="msg11"><polygon fill="#181818" points="38.52,437.7715,28.52,441.7715,38.52,445.7715,34.52,441.7715" style="stroke:#181818;stroke-width:1;"/><line style="stroke:#181818;stroke-width:1;stroke-dasharray:2,2;" x1="32.52" x2="278.2422" y1="441.7715" y2="441.7715"/><text fill="#000000" font-family="sans-serif" font-size="13" lengthAdjust="spacing" textLength="24.6606" x="44.52" y="437.0293">200</text></g><g class="message" data-entity-1="part1" data-entity-2="part2" id="msg12"><polygon fill="#181818" points="267.2422,467.082,277.2422,471.082,267.2422,475.082,271.2422,471.082" style="stroke:#181818;stroke-width:1;"/><line style="stroke:#181818;stroke-width:1;" x1="27.52" x2="273.2422" y1="471.082" y2="471.082"/><text fill="#000000" font-family="sans-serif" font-size="13" font-weight="bold" lengthAdjust="spacing" textLength="26.4697" x="34.52" y="466.3398">GET</text><text fill="#000000" font-family="sans-serif" font-size="13" lengthAdjust="spacing" textLength="145.0947" x="65.103" y="466.3398">/own/stats?year=2026</text></g><g class="message" data-entity-1="part2" data-entity-2="part3" id="msg13"><polygon fill="#181818" points="444.7666,481.082,454.7666,485.082,444.7666,489.082,448.7666,485.082" style="stroke:#181818;stroke-width:1;"/><line style="stroke:#181818;stroke-width:1;" x1="279.2422" x2="450.7666" y1="485.082" y2="485.082"/></g><g class="message" data-entity-1="part3" data-entity-2="part2" id="msg14"><polygon fill="#181818" points="290.2422,510.3926,280.2422,514.3926,290.2422,518.3926,286.2422,514.3926" style="stroke:#181818;stroke-width:1;"/><line style="stroke:#181818;stroke-width:1;stroke-dasharray:2,2;" x1="284.2422" x2="455.7666" y1="514.3926" y2="514.3926"/><text fill="#000000" font-family="sans-serif" font-size="13" lengthAdjust="spacing" textLength="153.5244" x="296.2422" y="509.6504">fetch all, filtered by year</text></g><g class="message" data-entity-1="part2" data-entity-2="part1" id="msg15"><polygon fill="#181818" points="38.52,539.7031,28.52,543.7031,38.52,547.7031,34.52,543.7031" style="stroke:#181818;stroke-width:1;"/><line style="stroke:#181818;stroke-width:1;stroke-dasharray:2,2;" x1="32.52" x2="278.2422" y1="543.7031" y2="543.7031"/><text fill="#000000" font-family="sans-serif" font-size="13" lengthAdjust="spacing" textLength="24.6606" x="44.52" y="538.9609">200</text></g><rect fill="#EEEEEE" height="3" style="stroke:#EEEEEE;stroke-width:1;" width="592.4741" x="0" y="572.3584"/><line style="stroke:#000000;stroke-width:1;" x1="0" x2="592.4741" y1="572.3584" y2="572.3584"/><line style="stroke:#000000;stroke-width:1;" x1="0" x2="592.4741" y1="575.3584" y2="575.3584"/><rect fill="#EEEEEE" height="23.3105" style="stroke:#000000;stroke-width:2;" width="239.894" x="176.29" y="561.7031"/><text fill="#000000" font-family="sans-serif" font-size="13" font-weight="bold" lengthAdjust="spacing" textLength="221.6094" x="182.29" y="578.2715">New Release Version of OwnRide</text><polygon fill="#FEFFDD" points="16,600.0137,558,600.0137,568,619.0137,558,638.0137,16,638.0137,6,619.0137,16,600.0137" style="stroke:#181818;stroke-width:0.5;"/><text fill="#000000" font-family="sans-serif" font-size="13" lengthAdjust="spacing" textLength="498.1514" x="36.1047" y="616.582">When a new release extracts more data in a newer version, existing "extracted"</text><text fill="#000000" font-family="sans-serif" font-size="13" lengthAdjust="spacing" textLength="482.8853" x="36.1047" y="631.8926">data is not changed. This is what the recalculate endpoint is responsible for.</text><g class="message" data-entity-1="part1" data-entity-2="part2" id="msg16"><polygon fill="#181818" points="267.2422,660.9453,277.2422,664.9453,267.2422,668.9453,271.2422,664.9453" style="stroke:#181818;stroke-width:1;"/><line style="stroke:#181818;stroke-width:1;" x1="27.52" x2="273.2422" y1="664.9453" y2="664.9453"/><text fill="#000000" font-family="sans-serif" font-size="13" font-weight="bold" lengthAdjust="spacing" textLength="26.5142" x="34.52" y="660.2031">PUT</text><text fill="#000000" font-family="sans-serif" font-size="13" lengthAdjust="spacing" textLength="197.0947" x="65.1475" y="660.2031">/own/activities/{id}/recalculate</text></g><g class="message" data-entity-1="part2" data-entity-2="part4" id="msg17"><polygon fill="#181818" points="536.6929,674.9453,546.6929,678.9453,536.6929,682.9453,540.6929,678.9453" style="stroke:#181818;stroke-width:1;"/><line style="stroke:#181818;stroke-width:1;" x1="279.2422" x2="542.6929" y1="678.9453" y2="678.9453"/></g><g class="message" data-entity-1="part4" data-entity-2="part3" id="msg18"><polygon fill="#181818" points="467.7666,704.2559,457.7666,708.2559,467.7666,712.2559,463.7666,708.2559" style="stroke:#181818;stroke-width:1;"/><line style="stroke:#181818;stroke-width:1;stroke-dasharray:2,2;" x1="461.7666" x2="547.6929" y1="708.2559" y2="708.2559"/><text fill="#000000" font-family="sans-serif" font-size="13" lengthAdjust="spacing" textLength="67.9263" x="473.7666" y="703.5137">recalculate</text></g><g class="message" data-entity-1="part3" data-entity-2="part2" id="msg19"><polygon fill="#181818" points="290.2422,718.2559,280.2422,722.2559,290.2422,726.2559,286.2422,722.2559" style="stroke:#181818;stroke-width:1;"/><line style="stroke:#181818;stroke-width:1;stroke-dasharray:2,2;" x1="284.2422" x2="455.7666" y1="722.2559" y2="722.2559"/></g><g class="message" data-entity-1="part2" data-entity-2="part1" id="msg20"><polygon fill="#181818" points="38.52,747.5664,28.52,751.5664,38.52,755.5664,34.52,751.5664" style="stroke:#181818;stroke-width:1;"/><line style="stroke:#181818;stroke-width:1;stroke-dasharray:2,2;" x1="32.52" x2="278.2422" y1="751.5664" y2="751.5664"/><text fill="#000000" font-family="sans-serif" font-size="13" lengthAdjust="spacing" textLength="24.6606" x="44.52" y="746.8242">200</text></g><?plantuml-src ZLF1JkCm4BtxAvuu0-dsi8U8506BLbm0GO4BbqaoRIm5EzWktMgr_yuObn3Kh23oQVpUl3T-aw13oxXQcnjTCqwkBt3Bpois5UENfgMZ9wMe2jRXZDgMdUh81LtfZao8S5LJe98yu_nFS8Ba-gDqgWsvZLA9YeDPPEGuAcVNLxVpewoS8RDhawswrbAjbiwkEimT6I-Dj3KAyaLFxqnE6iDwqiZHiVFQ1vH9CoBI5GuIUqZglNxmkBSVSJtWdPqhDhLweqiX3PHZElcXniRxVJwOBixoeeDcd_tLzJ-rws71eMfGRd1Hgn7bNTN9bw8-KF376oPNJ2VJdxkY8q9R7z9u7mlT1dPoAQvYbt4JHO5BNkE6MuvvtyUtj0PsqMzKKQZ6sC2WobdlSpmqR40mGdDRslRfFPwiOyJjWTvYPCANr7HVO9AJDalizLdjuT4al8Uee6h8BBa-nBoHYfnrGm6XOT6ggArMBOaLIRApMlPN08vzPutNfVm52-iEHvVrxlzfPeF6wlDAgi7-3S8U4huPzYi0?></g></svg>